<?xml version="1.0" encoding="UTF-8"?>
<svg xmlns="http://www.w3.org/2000/svg" viewBox="0 0 158.08 147.81">
  <defs>
    <style>
      .cls-1 {
        fill: none;
        stroke: #000;
        stroke-miterlimit: 10;
        stroke-width: .75px;
      }
    </style>
  </defs>
  <g id="Layer_3" data-name="Layer 3">
    <g>
      <path d="M31.22,141.28c-1.64,0-3.1-.28-4.38-.84-1.28-.56-2.36-1.33-3.25-2.31-.89-.98-1.56-2.1-2.02-3.36-.46-1.26-.69-2.6-.69-4.02,0-1.55.26-2.97.77-4.26.51-1.29,1.24-2.4,2.17-3.35.93-.94,2.04-1.68,3.33-2.2s2.71-.78,4.26-.78c1.01,0,1.9.1,2.69.31.79.21,1.43.43,1.93.69.51.25.82.45.95.6l-1.37,2.8c-.5-.45-1.12-.81-1.86-1.09-.74-.28-1.6-.42-2.59-.42-1.29,0-2.45.32-3.49.95-1.04.63-1.86,1.53-2.46,2.69s-.91,2.53-.91,4.12c0,1.4.26,2.67.78,3.82.52,1.15,1.29,2.07,2.31,2.76,1.02.69,2.25,1.04,3.71,1.04.8,0,1.59-.11,2.37-.32.77-.21,1.57-.57,2.39-1.08l.93,2.66c-.24.22-.65.46-1.23.71-.58.25-1.25.46-2,.63s-1.54.25-2.34.25Z"/>
      <path d="M40.8,141.09v-20.58h3v20.58h-3Z"/>
      <path d="M54.32,141.37c-1.34,0-2.53-.3-3.54-.9-1.02-.6-1.81-1.41-2.37-2.44-.56-1.03-.84-2.17-.84-3.42s.27-2.36.83-3.37,1.33-1.83,2.34-2.44c1.01-.61,2.2-.91,3.58-.91s2.58.3,3.58.91c1.01.61,1.78,1.42,2.32,2.44s.81,2.14.81,3.37-.28,2.39-.83,3.42-1.33,1.84-2.34,2.44c-1.01.6-2.19.9-3.56.9ZM54.41,138.9c1.12,0,1.98-.41,2.59-1.23.61-.82.91-1.82.91-3,0-.8-.15-1.53-.45-2.17-.3-.64-.72-1.16-1.27-1.55-.55-.39-1.2-.59-1.95-.59s-1.35.2-1.88.59c-.52.39-.93.91-1.22,1.55s-.43,1.37-.43,2.17.16,1.5.48,2.14c.32.64.75,1.15,1.3,1.53.55.37,1.19.56,1.92.56Z"/>
      <path d="M69.27,141.37c-1.29,0-2.27-.27-2.94-.81s-1.12-1.26-1.36-2.16c-.23-.9-.35-1.88-.35-2.97v-7.2h3.02v6.44c0,.99.06,1.79.18,2.41.12.62.36,1.07.73,1.36.36.29.91.43,1.64.43.52,0,1.02-.14,1.5-.43.48-.29.87-.69,1.19-1.2s.48-1.09.48-1.72v-7.28h3v12.85h-2.46l-.34-1.88c-.47.71-1.04,1.25-1.74,1.61-.69.36-1.54.55-2.55.55Z"/>
      <path d="M86.58,141.37c-1.14,0-2.2-.27-3.18-.81-.98-.54-1.77-1.32-2.37-2.32-.6-1.01-.9-2.21-.9-3.61s.26-2.54.77-3.54,1.24-1.78,2.18-2.34c.94-.56,2.07-.84,3.37-.84.75,0,1.45.13,2.1.38s1.21.58,1.68.99c.47.41.8.86,1.01,1.34l-.14-2.18v-7.92h2.97v20.58h-2.88l-.06-2.27c-.19.41-.5.81-.94,1.2-.44.39-.97.71-1.58.97s-1.3.38-2.04.38ZM87.08,138.82c.69,0,1.32-.16,1.89-.49.57-.33,1.03-.79,1.37-1.39.34-.6.52-1.31.52-2.13v-.2c0-.84-.17-1.57-.52-2.2-.35-.62-.8-1.11-1.37-1.46-.57-.34-1.2-.52-1.89-.52-1.25,0-2.19.4-2.81,1.2-.63.8-.94,1.79-.94,2.97s.31,2.19.94,3c.62.8,1.56,1.2,2.81,1.2Z"/>
      <path d="M106.65,141.09v-20.58h3.16v17.78h5.91v2.8h-9.07Z"/>
      <path d="M124.15,141.37c-1.34,0-2.53-.3-3.54-.9-1.02-.6-1.81-1.41-2.37-2.44-.56-1.03-.84-2.17-.84-3.42s.27-2.36.83-3.37,1.33-1.83,2.34-2.44c1.01-.61,2.2-.91,3.58-.91s2.58.3,3.58.91c1.01.61,1.78,1.42,2.32,2.44s.81,2.14.81,3.37-.28,2.39-.83,3.42-1.33,1.84-2.34,2.44c-1.01.6-2.19.9-3.56.9ZM124.24,138.9c1.12,0,1.98-.41,2.59-1.23.61-.82.91-1.82.91-3,0-.8-.15-1.53-.45-2.17-.3-.64-.72-1.16-1.27-1.55-.55-.39-1.2-.59-1.95-.59s-1.35.2-1.88.59c-.52.39-.93.91-1.22,1.55s-.43,1.37-.43,2.17.16,1.5.48,2.14c.32.64.75,1.15,1.3,1.53.55.37,1.19.56,1.92.56Z"/>
      <path d="M141.09,147.81c-.73,0-1.42-.07-2.09-.22-.66-.15-1.24-.31-1.72-.49s-.81-.31-.98-.41l.67-2.8c.45.3,1,.57,1.65.83s1.45.38,2.38.38c.43,0,.87-.04,1.33-.13.46-.08.89-.26,1.3-.53.41-.27.74-.67.99-1.2.25-.53.38-1.24.38-2.11v-2.3c-.37.69-.99,1.29-1.86,1.79-.87.5-1.85.76-2.95.76s-2.14-.28-3.07-.83c-.92-.55-1.66-1.33-2.21-2.35-.55-1.02-.83-2.22-.83-3.6s.26-2.49.77-3.49c.51-1,1.24-1.78,2.18-2.35s2.06-.85,3.35-.85c.78,0,1.5.14,2.16.41.65.27,1.2.6,1.64.98.44.38.73.75.88,1.11l.06-2.16h2.86v12.77c0,2.11-.55,3.77-1.64,4.98-1.09,1.21-2.84,1.82-5.25,1.82ZM141.04,138.82c.69,0,1.32-.16,1.89-.49.57-.33,1.03-.79,1.37-1.39.34-.6.52-1.31.52-2.13v-.2c0-.84-.17-1.57-.52-2.2-.35-.62-.8-1.11-1.37-1.46-.57-.34-1.2-.52-1.89-.52-1.25,0-2.19.4-2.81,1.2-.63.8-.94,1.79-.94,2.97s.31,2.19.94,3c.62.8,1.56,1.2,2.81,1.2Z"/>
    </g>
  </g>
  <g id="Layer_2" data-name="Layer 2">
    <path class="cls-1" d="M31.1,20.46s-.63-.13-.76-.1c-.12.03.29-.48-.26-.37-.35.07-.96-.04-1.06-.14-.18-.17-.1-.18-.14-.37-.11-.49.2-.61-.56-.4-.75.21-.86.06-.86.06-.3-.11-.16-.97.59-1.68.31-.29,4.45-.85,6.25-.29.72.22,1.29.69,1.76,1.23.38.43,1.36,1.04,3.83,1.72.38.11,2.44.12,2.5.14,1.57.57,0,0,3.92.73.03,0,0-.63.02-.64.1-.08-2.73-3.96-2.54-8.56.16-3.93,2.58-6.92,3.58-7.77.87-.74,4.69-4.01,10.23-3.62,5.23.36,10.4,3.86,11.22,7.85.7,3.42.9,8.47,0,9.1-.38.26.91,1.28,2.07,1.6,1.38.39,2.8-.02,4.21-.43,1.67-.48,2.89-.55,5.94-.06,6.74,1.09,9.87,5.76,18.17,7.86,5.07,1.28,6.16.14,12.63,1.75,1.33.33,4.01,1.38,7.03,1.17.71-.05,1.3-.16,2.37-.1,2.41.12,2,.37,2.87.32.48-.03.86,0,1.39-.45.46-.39,1.56-.45,1.91-.27.23.12,1.02.57,1.16.78.07.11.24.15.34.06.32-.29,1.36-.36,2.05-.39.48-.02,1.91.66,2.18,1.02.43.57,1.3,1.37,1.06,1.03,0,0,1.63.54,1.79.72.24.27.08.02.44.68.19.36.2.76.18,1.26-.05,1.29.24.71-.31,1.29-.33.26-1.41.29-1.57.27-2.12.05-2.45.22-3.76.22-.59,0-1.76-.46-3.16-.66-2.2-.33-4.02.04-7.74.71-3.89.7-3.74.82-6.85,1.28-.71.11-4.23.21-8.63.37-3.34-1.29-7.74-2.35-10.71-3.2-1.26-.36,1.99,2.55,3.34,4.55,1.22,1.81,8.7,17.29,7.03,19.02-1.24,1.28-3.05,1.29-5.9,2.74-1.68.85-1.53,1.83-3.13,2.57-1.99.92-4,.72-4.07,1.27-.05.36.79.43,1.09,1.12.41.93-.67,1.77-1.12,3.16-.49,1.52.54,1.12.16,2.67-.87,3.53-5.67,9.26-8.67,10.52-1.33.55-5.48-.07-7.77-.13-1.19-.03-2.16-.04-2.8-.05.06,7,.21,12.13.35,13.23,0,.02.07.41.21,1.19.15.88.23,1.33.5,1.73.2.29.43.49.59.61.04.81.08,1.63.12,2.44.39.37.8.8.93,1.3,1.01,4.05,1.03,6.4.73,6.4-.63.01-3.54.41-8.3.12-3.49-.21-6.37-.05-8.3.12-.31-.31-1.33-1-1.31-1.84.03-1.14-.57-1.85,2.2-3.9,1-.74,1.69-.38,2.55-.78,1.37-.63,2.25-2.36,2.48-6.3.39-6.62-4.77-13.11-4.68-15.65-.45-.3-1.66-1.07-3.12-.91-.87.1-1.45.49-1.65.6-1.1.62-6.48-1.18-10.18-2.59-.4-.15-.42-1.19-.49-1.58-1.83-1.62-8.1-3.73-9.03-4.67,0,0-3.65-.38-4.26.58-.89,1.41,3.06,3.37,4.4,8.18.62,2.22-.12,2.19.5,6.95.28,2.16.64,3.7,1.21,6.17.46,1.99,1.12,4.59,2.05,7.63l1.24-.08c1.42,4.34,1.18,3.62,2.6,7.96-1.94,1.03-3.59,1.4-4.69,1.56-3.94.57-5.7-.93-9.15.06-1.64.47-1.24.81-3.29,1.52-1.7.59-3.09.75-7.6.87-7.01.19-6.6-.39-7.44-.49-1.07-.13-1.05-2.16-.63-2.85.14-.24.6-.99,1.53-1.36,1.29-.52,2.16.22,3.17-.41.54-.34.76-.26,1.28-.6.99-.64,1.89.19,2.97-.51,1.78-1.14,4.46-2.82,6.1-3.83.51-.31.09-1.1.59-1.29.3-.11.47-.26.69-.4.4-.26.04-.67.52-1.22.26-.29,1.41-.79,2.1-1.25,1.19-.79.14-4.58-2.41-9.29-3.44-6.33-6.88-10.17-6.28-12.97.06-.3-.31-1.21-.81-2.11-.52-.94-1.35-1.61-1.85-2.13-1.4-1.43-2.68-9.66,2.41-11.64,1.4-.54,2.35.06,4.54-.85,1.74-.72,1.68-1.32,3.12-1.92,0,0,5.57-.25,7.1.19,2.74.8,3.14,1.77,5.54,1.88.92.04,1.63-.07,2.7.26,1.3.4,2.2,1.16,2.77,1.75l5.46.06c-.1-.27-.47-1.35.07-2.53.7-1.53,2.34-1.98,2.55-2.04-.4-1.78-.8-3.57-1.2-5.35.45-.24.89-.49,1.34-.73v-1.3c-.5.14-1.28-.07-1.95-.47-.83-.49-2.63-4.35-3.15-6.81-.41-1.94-1.45-4.06-1.27-6.98.11-1.67-.8-3.23-2.22-4.28-2.99-2.21-2.92-5.39-7.34-6.88-1.42-.48-3.45-2.38-4.19-2.82-.42-.1-.88-.06-1.01-.2-.05-.05-.44-.28-.44-.28-.07-.26-.67-.16-.61-.22-.34-.16-.6.14-.74,0-.2-.19-.33-.25-.56-.26Z"/>
  </g>
</svg>