<?xml version="1.0" encoding="UTF-8"?>
<svg id="Layer_1" data-name="Layer 1" xmlns="http://www.w3.org/2000/svg" viewBox="0 0 331.02 88.67">
  <defs>
    <style>
      .cls-1 {
        fill: none;
        stroke: #000;
        stroke-miterlimit: 10;
        stroke-width: 2px;
      }
    </style>
  </defs>
  <g>
    <path d="M141.23,58.07c-2.82,0-5.32-.48-7.51-1.44-2.19-.96-4.05-2.28-5.57-3.96-1.52-1.68-2.67-3.6-3.46-5.76-.78-2.16-1.18-4.46-1.18-6.89,0-2.66.44-5.09,1.32-7.3.88-2.21,2.12-4.12,3.72-5.74,1.6-1.62,3.5-2.87,5.71-3.77,2.21-.9,4.64-1.34,7.3-1.34,1.73,0,3.26.18,4.61.53,1.34.35,2.45.74,3.31,1.18.86.43,1.41.78,1.63,1.03l-2.35,4.8c-.86-.77-1.93-1.39-3.19-1.87-1.26-.48-2.74-.72-4.44-.72-2.21,0-4.2.54-5.98,1.63s-3.18,2.62-4.22,4.61c-1.04,1.98-1.56,4.34-1.56,7.06,0,2.4.45,4.58,1.34,6.55.9,1.97,2.22,3.54,3.96,4.73,1.74,1.18,3.86,1.78,6.36,1.78,1.38,0,2.73-.18,4.06-.55,1.33-.37,2.7-.98,4.1-1.85l1.58,4.56c-.42.38-1.12.79-2.11,1.22-.99.43-2.14.79-3.43,1.08-1.3.29-2.63.43-4.01.43Z"/>
    <path d="M156.35,57.74V22.46h5.14v35.28h-5.14Z"/>
    <path d="M178.24,58.22c-2.3,0-4.33-.51-6.07-1.54-1.75-1.02-3.1-2.42-4.06-4.18-.96-1.76-1.44-3.71-1.44-5.86s.47-4.04,1.42-5.78c.94-1.74,2.28-3.14,4.01-4.18,1.73-1.04,3.78-1.56,6.14-1.56s4.42.52,6.15,1.56c1.73,1.04,3.06,2.43,3.98,4.18.93,1.74,1.39,3.67,1.39,5.78s-.47,4.1-1.42,5.86c-.94,1.76-2.28,3.15-4.01,4.18-1.73,1.02-3.76,1.54-6.1,1.54ZM178.38,53.99c1.92,0,3.4-.7,4.44-2.11,1.04-1.41,1.56-3.12,1.56-5.14,0-1.38-.26-2.62-.77-3.72s-1.24-1.99-2.18-2.66c-.94-.67-2.06-1.01-3.34-1.01s-2.32.34-3.22,1.01c-.9.67-1.59,1.56-2.09,2.66-.5,1.1-.74,2.34-.74,3.72s.27,2.57.82,3.67c.54,1.1,1.29,1.98,2.23,2.62.94.64,2.04.96,3.29.96Z"/>
    <path d="M202.57,58.22c-2.21,0-3.89-.46-5.04-1.39s-1.93-2.16-2.33-3.7c-.4-1.54-.6-3.23-.6-5.09v-12.34h5.18v11.04c0,1.7.1,3.07.31,4.13.21,1.06.62,1.83,1.25,2.33.62.5,1.56.74,2.81.74.9,0,1.75-.25,2.57-.74.82-.5,1.5-1.18,2.04-2.06.54-.88.82-1.86.82-2.95v-12.48h5.14v22.03h-4.22l-.58-3.22c-.8,1.22-1.79,2.14-2.98,2.76-1.18.62-2.64.94-4.37.94Z"/>
    <path d="M230.94,58.22c-1.95,0-3.77-.46-5.45-1.39s-3.03-2.26-4.06-3.98c-1.03-1.73-1.54-3.79-1.54-6.19s.44-4.36,1.32-6.07c.88-1.71,2.13-3.05,3.74-4.01,1.62-.96,3.54-1.44,5.78-1.44,1.28,0,2.48.22,3.6.65s2.08,1,2.88,1.7c.8.7,1.38,1.47,1.73,2.3l-.24-3.74v-13.58h5.09v35.28h-4.94l-.1-3.89c-.32.7-.86,1.39-1.61,2.06-.75.67-1.66,1.22-2.71,1.66-1.06.43-2.22.65-3.5.65ZM231.81,53.85c1.18,0,2.26-.28,3.24-.84.98-.56,1.76-1.35,2.35-2.38.59-1.02.89-2.24.89-3.65v-.34c0-1.44-.3-2.7-.89-3.77-.59-1.07-1.38-1.9-2.35-2.5-.98-.59-2.06-.89-3.24-.89-2.14,0-3.75.69-4.82,2.06-1.07,1.38-1.61,3.07-1.61,5.09s.54,3.76,1.61,5.14c1.07,1.38,2.68,2.06,4.82,2.06Z"/>
    <path d="M262.77,57.74V22.46h5.42v30.48h10.13v4.8h-15.55Z"/>
    <path d="M291.47,58.22c-2.3,0-4.33-.51-6.07-1.54-1.75-1.02-3.1-2.42-4.06-4.18-.96-1.76-1.44-3.71-1.44-5.86s.47-4.04,1.42-5.78c.94-1.74,2.28-3.14,4.01-4.18,1.73-1.04,3.78-1.56,6.14-1.56s4.42.52,6.14,1.56c1.73,1.04,3.06,2.43,3.98,4.18.93,1.74,1.39,3.67,1.39,5.78s-.47,4.1-1.42,5.86c-.94,1.76-2.28,3.15-4.01,4.18-1.73,1.02-3.76,1.54-6.1,1.54ZM291.62,53.99c1.92,0,3.4-.7,4.44-2.11,1.04-1.41,1.56-3.12,1.56-5.14,0-1.38-.26-2.62-.77-3.72s-1.24-1.99-2.18-2.66c-.94-.67-2.06-1.01-3.34-1.01s-2.32.34-3.22,1.01c-.9.67-1.59,1.56-2.09,2.66-.5,1.1-.74,2.34-.74,3.72s.27,2.57.82,3.67c.54,1.1,1.29,1.98,2.23,2.62.94.64,2.04.96,3.29.96Z"/>
    <path d="M319.22,69.26c-1.25,0-2.44-.13-3.58-.38-1.14-.26-2.12-.54-2.95-.84-.83-.3-1.39-.54-1.68-.7l1.15-4.8c.77.51,1.71.98,2.83,1.42,1.12.43,2.48.65,4.08.65.74,0,1.5-.07,2.28-.22.78-.14,1.53-.45,2.23-.91.7-.46,1.27-1.15,1.7-2.06.43-.91.65-2.12.65-3.62v-3.94c-.64,1.18-1.7,2.21-3.19,3.07-1.49.86-3.18,1.3-5.06,1.3s-3.67-.47-5.26-1.42c-1.58-.94-2.85-2.29-3.79-4.03-.94-1.74-1.42-3.8-1.42-6.17s.44-4.26,1.32-5.98,2.13-3.06,3.74-4.03c1.62-.98,3.53-1.46,5.74-1.46,1.34,0,2.58.23,3.7.7,1.12.46,2.06,1.02,2.81,1.68.75.66,1.26,1.29,1.51,1.9l.1-3.7h4.9v21.89c0,3.62-.94,6.46-2.81,8.54-1.87,2.08-4.87,3.12-9,3.12ZM319.12,53.85c1.18,0,2.26-.28,3.24-.84.98-.56,1.76-1.35,2.35-2.38.59-1.02.89-2.24.89-3.65v-.34c0-1.44-.3-2.7-.89-3.77-.59-1.07-1.38-1.9-2.35-2.5-.98-.59-2.06-.89-3.24-.89-2.14,0-3.75.69-4.82,2.06-1.07,1.38-1.61,3.07-1.61,5.09s.54,3.76,1.61,5.14c1.07,1.38,2.68,2.06,4.82,2.06Z"/>
  </g>
  <g id="Layer_2" data-name="Layer 2">
    <path class="cls-1" d="M17.19,16.56s-.47-.12-.59-.08c-.08,0,.24-.35-.2-.28-.28.04-.75,0-.83-.12-.16-.12-.08-.16-.12-.28-.08-.39.16-.47-.43-.31s-.67.04-.67.04c-.24-.08-.12-.75.47-1.3.24-.24,3.42-.67,4.8-.24.55.16.98.55,1.34.94.28.31,1.06.79,2.95,1.34.28.08,1.89.08,1.93.12,1.22.43,0,0,3.03.55v-.51c.08-.08-2.08-3.07-1.97-6.6.12-3.03,2.01-5.35,2.75-6.02.67-.59,3.62-3.11,7.86-2.79,4.01.28,8.02,2.99,8.65,6.05.55,2.63.71,6.57,0,7.04-.28.2.71.98,1.61,1.22,1.06.31,2.16,0,3.22-.31,1.3-.35,2.24-.43,4.56-.04,5.19.83,7.59,4.44,14,6.09,3.89.98,4.76.12,9.71,1.34,1.02.24,3.11,1.06,5.43.9.55,0,.98-.12,1.81-.08,1.85.08,1.53.28,2.2.24.35,0,.67,0,1.06-.35.35-.31,1.22-.35,1.45-.2.2.08.79.43.9.59.04.08.2.12.28.04.24-.24,1.06-.28,1.57-.31.35,0,1.45.51,1.69.79.31.43.98,1.06.83.79,0,0,1.26.43,1.38.55.2.2.08,0,.35.51.16.28.16.59.16.98,0,.98.2.55-.24.98-.24.2-1.1.24-1.22.2-1.65,0-1.89.16-2.91.16-.47,0-1.34-.35-2.44-.51-1.69-.24-3.11,0-5.98.55-2.99.55-2.87.63-5.27.98-.55.08-3.26.16-6.64.28-2.56-.98-5.98-1.81-8.26-2.48-.98-.28,1.53,1.97,2.56,3.54.94,1.42,6.68,13.37,5.43,14.7-.94.98-2.36.98-4.56,2.12-1.3.67-1.18,1.42-2.4,2.01-1.53.71-3.07.55-3.15.98,0,.28.59.31.83.86.31.71-.51,1.38-.86,2.44-.39,1.18.43.86.12,2.08-.67,2.71-4.36,7.16-6.68,8.14-1.02.43-4.21-.04-5.98-.12h-2.16c.04,5.43.16,9.4.28,10.22,0,0,.04.31.16.9.12.67.2,1.02.39,1.34.16.24.31.39.47.47,0,.63.08,1.26.08,1.89.31.28.63.63.71,1.02.79,3.15.79,4.95.55,4.95-.47,0-2.71.31-6.41.08-2.67-.16-4.91,0-6.41.08-.24-.24-1.02-.79-1.02-1.42,0-.86-.43-1.42,1.69-3.03.79-.59,1.3-.28,1.97-.59,1.06-.47,1.73-1.81,1.93-4.88.31-5.11-3.66-10.14-3.62-12.11-.35-.24-1.3-.83-2.4-.71-.67.08-1.1.39-1.26.47-.86.47-4.99-.9-7.82-2.01-.31-.12-.31-.9-.39-1.22-1.42-1.26-6.25-2.87-6.96-3.62,0,0-2.79-.28-3.26.43-.67,1.1,2.36,2.59,3.38,6.33.47,1.73-.08,1.69.39,5.39.2,1.69.51,2.87.94,4.76.35,1.53.86,3.54,1.57,5.9l.94-.08c1.1,3.34.9,2.79,2.01,6.17-1.49.79-2.75,1.1-3.62,1.22-3.03.43-4.4-.71-7.04.04-1.26.35-.94.63-2.52,1.18-1.3.47-2.4.59-5.86.67-5.39.16-5.07-.31-5.74-.39-.83-.12-.83-1.69-.47-2.2.12-.2.47-.75,1.18-1.06.98-.39,1.65.16,2.44-.31.43-.28.59-.2.98-.47.75-.51,1.45.16,2.28-.39,1.38-.86,3.42-2.16,4.68-2.95.39-.24.08-.86.47-.98.24-.08.35-.2.55-.31.31-.2,0-.51.39-.94.2-.24,1.1-.63,1.61-.98.9-.63.12-3.54-1.85-7.19-2.63-4.91-5.31-7.86-4.84-10.03.04-.24-.24-.94-.63-1.65-.39-.71-1.02-1.26-1.42-1.65-1.06-1.1-2.04-7.47,1.85-9,1.06-.43,1.81.04,3.5-.67,1.34-.55,1.3-1.02,2.4-1.49,0,0,4.29-.2,5.46.16,2.12.63,2.4,1.38,4.25,1.45.71,0,1.26-.04,2.08.2.98.31,1.69.9,2.12,1.34h4.21s-.35-.98.04-1.93c.55-1.18,1.81-1.53,1.97-1.57-.31-1.38-.63-2.75-.9-4.13.35-.2.67-.39,1.02-.55v-1.02c-.39.12-.98-.04-1.49-.35-.63-.39-2.01-3.38-2.44-5.27-.31-1.49-1.1-3.15-.98-5.39.08-1.3-.63-2.52-1.69-3.3-2.32-1.69-2.24-4.17-5.66-5.31-1.1-.35-2.67-1.85-3.22-2.16-.31-.08-.67-.04-.79-.16l-.35-.24c-.04-.2-.51-.12-.47-.16-.28-.12-.47.12-.55,0-.16-.16-.24-.2-.43-.2h0l.2.2Z"/>
  </g>
</svg>